<svg width="541" height="100" viewBox="0 0 541 100" fill="none" xmlns="http://www.w3.org/2000/svg">
<path d="M188.16 99.1762C183.652 97.373 179.144 94.8486 174.816 91.7832C170.489 88.7178 166.432 85.1114 162.645 81.0542C155.162 72.9399 149.121 63.2027 145.244 52.9245C150.023 36.5155 150.203 23.2621 145.785 8.92683C152.096 6.31221 158.768 4.3287 165.71 2.97632C173.013 1.53377 180.587 0.8125 188.16 0.8125C195.733 0.8125 203.307 1.53377 210.61 2.97632C217.462 4.3287 224.133 6.31221 230.535 8.92683C226.117 23.2621 226.297 36.5155 231.076 52.9245C227.199 63.2027 221.158 72.8497 213.675 81.0542C209.888 85.1114 205.831 88.7178 201.504 91.7832C197.176 94.8486 192.668 97.2829 188.16 99.1762Z" fill="black"/>
<path d="M201.508 92.6896C214.852 83.4032 225.851 68.9777 231.892 52.9293C227.925 39.4054 227.114 28.0454 229.458 16.3247L229.007 14.792L219.811 11.7266L218.819 12.4478C216.655 24.1685 217.286 35.6188 220.802 48.9623C212.147 69.0678 197.091 81.2393 186.362 85.9276L186.271 87.4603L198.804 92.96L201.508 92.6896Z" fill="#FBCE30"/>
<path d="M188.163 0C174.098 0 160.754 2.4343 148.763 6.94226L148.312 7.7537C151.017 15.5976 152.189 21.5481 152.55 27.4986C153.001 34.6211 152.28 41.924 150.116 50.6695L150.026 50.94L150.116 51.1203C151.288 53.5546 152.55 55.8987 153.902 58.1527C155.255 60.4067 156.878 62.5705 158.5 64.6442C160.123 66.7178 161.927 68.7013 163.82 70.6849C165.713 72.5782 167.787 74.4715 169.951 76.1846C172.115 77.8976 174.369 79.6106 176.803 81.2335C179.147 82.7662 181.671 84.2989 184.286 85.7414C184.737 86.0119 185.188 86.1922 185.638 86.4627H186.36V86.1021C186.901 85.8316 187.442 85.5611 188.073 85.2906C177.524 80.1516 163.549 68.1604 155.345 49.1368C158.861 35.7932 159.492 24.343 157.328 12.6223C166.885 9.7372 177.254 8.2045 188.073 8.2045C202.949 8.2045 217.014 11.1797 229.366 16.4991C229.907 13.8845 230.538 11.2699 231.439 8.56513C218.456 3.06541 203.76 0 188.163 0Z" fill="#FBCE30"/>
<path d="M201.507 92.6949C177.254 83.7691 159.673 70.0649 150.657 50.7708C155.165 32.6488 153.452 21.2888 148.673 6.86328C147.321 7.31408 146.059 7.85503 144.706 8.39599C149.395 23.0919 149.124 36.3453 144.346 52.9346C152.28 74.1221 168.959 92.3342 188.073 99.9978C192.761 98.1946 197.269 95.6701 201.507 92.6949Z" fill="#FCC800"/>
<path d="M180.501 38.8575V38.6772C184.017 38.2264 186.812 36.6035 186.812 32.4562C186.812 27.227 182.665 24.8828 177.525 24.8828H163.551V27.7679C165.444 27.7679 166.075 28.3089 166.075 30.5628V51.2093C166.075 52.1109 166.797 52.8322 167.698 52.8322H178.337C185.279 52.8322 187.713 50.2176 187.713 45.7998C187.804 41.7426 185.55 39.3984 180.501 38.8575ZM173.468 28.1285H175.091C177.886 28.1285 179.058 29.3006 179.058 32.6365C179.058 36.5133 177.976 37.2346 175.181 37.2346H173.378V28.1285H173.468ZM175.812 49.8569H173.468V40.3902H176.083C178.878 40.3902 180.14 41.7426 180.14 45.1686C180.14 48.9553 178.698 49.8569 175.812 49.8569ZM212.778 26.4155L213.138 32.8168H209.622C208.721 29.3908 208.54 28.1285 205.835 28.1285H204.663V52.742H197.451V28.1285H196.279C193.664 28.1285 193.393 29.3908 192.492 32.8168H188.976L189.336 26.4155C189.426 25.6041 190.058 24.8828 190.959 24.8828H211.065C211.966 24.973 212.688 25.6041 212.778 26.4155Z" fill="#FCC800"/>
<path d="M268.675 24.9701L269.125 32.4533H266.15C265.339 29.0273 265.068 27.8552 262.544 27.8552H260.831V48.2312C260.831 50.5753 261.552 51.1163 263.986 51.1163V52.9194H251.364V51.1163C253.798 51.1163 254.519 50.5753 254.519 48.2312V27.765H252.806C250.192 27.765 249.921 28.9371 249.2 32.3631H246.135L246.585 24.8799H268.675V24.9701ZM285.624 40.4775C287.608 41.0184 289.141 42.1003 289.952 43.3626C291.034 44.8051 291.755 46.2477 293.018 48.7721C293.739 50.3048 294.099 51.0261 296.083 51.1163V52.9194H287.969C286.165 48.7721 285.624 47.5099 284.092 44.6248C282.649 42.1004 281.838 41.3791 279.764 41.1987V48.2312C279.764 50.4852 280.485 51.1163 282.469 51.1163V52.9194H270.748V51.1163C272.822 51.1163 273.453 50.5753 273.453 48.2312V29.8387C273.453 27.5847 272.822 26.9536 270.748 26.9536V25.0602H283.461C289.231 25.0602 293.288 27.2241 293.288 33.0844C293.288 38.0432 289.862 40.1168 285.534 40.3873V40.4775H285.624ZM282.379 27.765H279.854V38.3137H282.289C285.264 38.3137 286.706 37.2317 286.706 32.9942C286.706 29.2076 285.354 27.765 282.379 27.765ZM312.041 45.3461H303.476L302.484 48.7721C302.394 49.2229 302.304 49.4934 302.304 49.7639C302.304 50.7556 303.115 50.8458 304.828 50.936V52.7391H295.993V50.936C297.706 50.7556 298.247 50.395 298.968 48.2312L306.541 24.8799H311.59L319.614 48.2312C320.246 50.0344 320.696 50.7556 322.319 50.936V52.7391H310.959V50.936C312.762 50.8458 313.393 50.5753 313.393 49.7639C313.393 49.4934 313.303 49.1328 313.213 48.7721L312.041 45.3461ZM304.287 42.3708H311.049L308.886 35.6089C308.164 33.3549 307.804 31.9123 307.713 31.1009H307.533C307.353 31.9123 306.992 33.2647 306.271 35.699L304.287 42.3708ZM343.687 29.7485C343.687 27.4945 343.056 26.8634 340.892 26.8634V24.9701H349.728V26.8634C347.654 26.8634 347.023 27.4945 347.023 29.7485V52.8293H342.515L332.688 37.5924C330.794 34.7073 329.802 32.5435 329.352 31.6419H329.171C329.262 32.5435 329.532 35.2482 329.532 37.7727V48.141C329.532 50.395 330.163 51.0261 332.327 51.0261V52.8293H323.401V51.0261C325.475 51.0261 326.106 50.4852 326.106 48.141V29.7485C326.106 27.4945 325.475 26.8634 323.401 26.8634V24.9701H332.688L341.163 38.3137C342.425 40.2972 343.326 42.3708 343.777 43.5429H343.957C343.867 42.6413 343.597 39.9365 343.597 37.5924V29.7485H343.687ZM352.973 51.1163V45.7969H357.211C357.572 49.4934 359.194 51.0261 362.26 51.0261C365.235 51.0261 367.038 49.5836 367.038 46.6083C367.038 44.0838 365.956 42.9118 362.711 42.0102L359.825 41.2889C355.588 40.207 353.154 38.0432 353.154 33.2647C353.154 27.5847 356.94 24.6094 362.801 24.6094C367.128 24.6094 369.743 25.7815 371.095 26.593V32.0927H367.038C366.678 29.1174 365.596 27.1339 362.35 27.1339C359.735 27.1339 358.383 28.5765 358.383 31.0108C358.383 33.1746 359.375 34.4368 362.26 35.1581L364.965 35.8794C369.473 37.0514 372.448 39.4857 372.448 44.5346C372.448 50.3048 368.661 53.5506 361.809 53.5506C357.211 53.3703 354.777 52.108 352.973 51.1163ZM378.579 29.7485C378.579 27.4945 377.947 26.8634 375.874 26.8634V24.9701H387.685V26.8634C385.521 26.8634 384.89 27.4945 384.89 29.7485V48.141C384.89 50.395 385.521 51.0261 387.685 51.0261V52.8293H375.874V51.0261C377.947 51.0261 378.579 50.4852 378.579 48.141V29.7485ZM399.766 50.1245H403.553C406.167 50.1245 407.52 48.9525 408.241 45.0756H411.306L410.765 52.7391H390.75V50.936C392.824 50.936 393.455 50.395 393.455 48.0509V29.6584C393.455 27.4044 392.824 26.7733 390.75 26.7733V24.8799H402.561V26.7733C400.397 26.7733 399.766 27.4044 399.766 29.6584V50.1245V50.1245ZM419.06 52.8293L411.036 29.3879C410.315 27.4044 409.954 27.0437 408.421 26.8634V24.9701H419.962V26.8634C418.339 26.8634 417.618 27.4044 417.618 28.306C417.618 28.5765 417.708 28.9371 417.798 29.2076L421.765 42.1905C422.306 43.9937 422.757 46.3378 422.937 47.3296H423.207C423.298 46.3378 423.839 44.0838 424.38 42.1003L428.256 29.2076C428.347 28.8469 428.437 28.5765 428.437 28.306C428.437 27.3142 427.715 26.8634 426.002 26.8634V24.9701H434.928V26.8634C433.215 27.0437 432.674 27.4044 431.953 29.478L424.289 52.8293H419.06V52.8293ZM447.55 45.3461H438.985L437.994 48.7721C437.903 49.2229 437.813 49.4934 437.813 49.7639C437.813 50.7556 438.625 50.8458 440.338 50.936V52.7391H431.502V50.936C433.215 50.7556 433.756 50.395 434.477 48.2312L442.051 24.8799H447.1L455.124 48.2312C455.755 50.0344 456.206 50.7556 457.829 50.936V52.7391H446.469V50.936C448.272 50.8458 448.903 50.5753 448.903 49.7639C448.903 49.4934 448.813 49.1328 448.723 48.7721L447.55 45.3461ZM439.797 42.3708H446.559L444.395 35.6089C443.674 33.3549 443.313 31.9123 443.223 31.1009H443.042C442.862 31.9123 442.502 33.2647 441.78 35.699L439.797 42.3708ZM479.196 29.7485C479.196 27.4945 478.565 26.8634 476.401 26.8634V24.9701H485.237V26.8634C483.163 26.8634 482.532 27.4945 482.532 29.7485V52.8293H478.024L468.197 37.5924C466.304 34.7073 465.312 32.5435 464.861 31.6419H464.681C464.771 32.5435 465.041 35.2482 465.041 37.7727V48.141C465.041 50.395 465.672 51.0261 467.836 51.0261V52.8293H458.91V51.0261C460.984 51.0261 461.615 50.4852 461.615 48.141V29.7485C461.615 27.4945 460.984 26.8634 458.91 26.8634V24.9701H468.197L476.672 38.3137C477.934 40.2972 478.836 42.3708 479.286 43.5429H479.467C479.377 42.6413 479.106 39.9365 479.106 37.5924V29.7485H479.196ZM490.917 29.7485C490.917 27.4945 490.286 26.8634 488.212 26.8634V24.9701H500.023V26.8634C497.859 26.8634 497.228 27.4945 497.228 29.7485V48.141C497.228 50.395 497.859 51.0261 500.023 51.0261V52.8293H488.212V51.0261C490.286 51.0261 490.917 50.4852 490.917 48.141V29.7485ZM517.153 45.3461H508.588L507.596 48.7721C507.506 49.2229 507.416 49.4934 507.416 49.7639C507.416 50.7556 508.228 50.8458 509.941 50.936V52.7391H501.105V50.936C502.818 50.7556 503.359 50.395 504.08 48.2312L511.654 24.8799H516.703L524.727 48.2312C525.358 50.0344 525.809 50.7556 527.432 50.936V52.7391H516.071V50.936C517.875 50.8458 518.506 50.5753 518.506 49.7639C518.506 49.4934 518.416 49.1328 518.325 48.7721L517.153 45.3461ZM509.49 42.3708H516.252L514.088 35.6089C513.367 33.3549 513.006 31.9123 512.916 31.1009H512.736C512.555 31.9123 512.195 33.2647 511.473 35.699L509.49 42.3708ZM528.423 28.6666C528.423 24.8799 531.218 22.3555 534.644 22.3555C538.07 22.3555 540.865 24.8799 540.865 28.6666C540.865 32.4533 538.16 34.9778 534.644 34.9778C531.128 34.9778 528.423 32.4533 528.423 28.6666ZM540.144 28.6666C540.144 25.1504 537.71 22.9866 534.644 22.9866C531.579 22.9866 529.145 25.1504 529.145 28.6666C529.145 32.0927 531.579 34.2565 534.644 34.2565C537.71 34.3467 540.144 32.0927 540.144 28.6666ZM534.644 32.3631H531.489V31.9124C532.3 31.9124 532.48 31.5517 532.48 30.8304V26.5028C532.48 25.6914 532.48 25.4209 531.489 25.4209V24.9701H534.464C536.087 24.9701 537.259 25.4209 537.259 26.9536C537.259 28.4863 536.447 28.8469 535.095 28.8469V28.9371C535.636 29.1174 536.087 29.5682 536.538 30.1092C536.718 30.3796 536.898 30.7403 537.169 31.1911C537.439 31.732 537.529 31.8222 538.251 31.9124V32.3631H536.357C536.087 31.6419 535.726 31.0108 535.456 30.4698C534.825 29.2977 534.644 28.9371 533.653 28.9371V30.8304C533.653 31.732 533.833 31.9124 534.734 31.9124V32.3631H534.644ZM534.103 25.511H533.562V28.3961H534.374C535.636 28.3961 536.087 28.0355 536.087 26.9536C535.997 25.9618 535.546 25.511 534.103 25.511ZM0 51.0261C2.07366 51.0261 2.70478 50.4852 2.70478 48.141V29.7485C2.70478 27.4945 2.07366 26.8634 0 26.8634V24.9701H12.8928C18.5728 24.9701 22.3595 27.3142 22.3595 32.3631C22.3595 36.1498 20.1055 37.8629 16.409 38.5841V38.7645C21.2776 39.3054 23.4414 41.8299 23.4414 45.7067C23.4414 50.395 20.376 53.0096 13.9747 53.0096H0V51.0261ZM11.4502 37.3219C14.6058 37.3219 15.6877 36.3301 15.6877 32.6336C15.6877 29.0272 14.4255 27.8552 11.2699 27.8552H8.92577V37.3219H11.4502ZM12.1715 50.1245C15.5074 50.1245 16.8598 49.0426 16.8598 45.0756C16.8598 41.4692 15.5975 40.0267 12.1715 40.0267H9.01592V50.1245H12.1715V50.1245ZM41.1126 45.3461H32.5475L31.5557 48.7721C31.4656 49.2229 31.3754 49.4934 31.3754 49.7639C31.3754 50.7556 32.1868 50.8458 33.8999 50.936V52.7391H25.0643V50.936C26.7773 50.7556 27.3182 50.395 28.0395 48.2312L35.6129 24.8799H40.6618L48.686 48.2312C49.3171 50.0344 49.7679 50.7556 51.3908 50.936V52.7391H40.0307V50.936C41.8339 50.8458 42.465 50.5753 42.465 49.7639C42.465 49.4934 42.3748 49.1328 42.2847 48.7721L41.1126 45.3461ZM33.4491 42.3708H40.211L38.0472 35.6089C37.3259 33.3549 36.9653 31.9123 36.8751 31.1009H36.6948C36.5145 31.9123 36.1539 33.2647 35.4326 35.699L33.4491 42.3708ZM72.7585 29.7485C72.7585 27.4945 72.1274 26.8634 69.9636 26.8634V24.9701H78.7992V26.8634C76.7255 26.8634 76.0944 27.4945 76.0944 29.7485V52.8293H71.5864L61.7591 37.5924C59.8657 34.7073 58.874 32.5435 58.4232 31.6419H58.2429C58.333 32.5435 58.6035 35.2482 58.6035 37.7727V48.141C58.6035 50.395 59.2346 51.0261 61.3984 51.0261V52.8293H52.4727V51.0261C54.5463 51.0261 55.1774 50.4852 55.1774 48.141V29.7485C55.1774 27.4945 54.5463 26.8634 52.4727 26.8634V24.9701H61.7591L70.234 38.3137C71.4963 40.2972 72.3979 42.3708 72.8487 43.5429H73.029C72.9388 42.6413 72.6683 39.9365 72.6683 37.5924V29.7485H72.7585ZM81.8646 39.3054C81.8646 29.1174 87.0938 24.5193 94.8475 24.5193C98.8145 24.5193 101.519 25.2406 103.413 26.5028V32.0025H99.085C98.4539 28.9371 97.5523 27.4044 94.7574 27.4044C90.9707 27.4044 88.897 29.9289 88.897 39.1251C88.897 48.8623 91.3313 50.6655 94.7574 50.6655C97.9129 50.6655 98.9948 49.2229 99.4456 45.887H103.593V51.2064C101.97 52.3785 98.544 53.3702 94.4869 53.3702C86.3725 53.2801 81.8646 48.3213 81.8646 39.3054ZM120.994 45.3461H112.429L111.437 48.7721C111.347 49.2229 111.256 49.4934 111.256 49.7639C111.256 50.7556 112.068 50.8458 113.781 50.936V52.7391H104.945V50.936C106.658 50.7556 107.199 50.395 107.921 48.2312L115.494 24.8799H120.543L128.567 48.2312C129.198 50.0344 129.649 50.7556 131.272 50.936V52.7391H119.822V50.936C121.625 50.8458 122.256 50.5753 122.256 49.7639C122.256 49.4934 122.166 49.1328 122.076 48.7721L120.994 45.3461ZM113.24 42.3708H120.002L117.838 35.6089C117.117 33.3549 116.756 31.9123 116.666 31.1009H116.486C116.305 31.9123 115.945 33.2647 115.224 35.699L113.24 42.3708Z" fill="#FCC800"/>
</svg>
