<svg width="314" height="100" viewBox="0 0 314 100" fill="none" xmlns="http://www.w3.org/2000/svg">
<g clip-path="url(#clip0_599_192)">
<path d="M120.44 87.2329C108.769 79.9125 92.9312 78.628 67.3883 85.5284C40.158 91.7593 31.079 95.7535 19.1557 87.7353C14.575 83.7964 12.9328 77.4545 14.1591 68.3193C17.0034 53.4273 24.6898 39.0961 38.3428 23.1994C45.9638 14.93 53.0327 7.83334 62.3674 4.9836C69.5214 3.19588 68.8526 8.67051 67.9869 9.45348C67.0735 9.45348 65.539 9.59358 64.3531 10.3471C63.3906 11.074 60.7486 13.421 60.6067 16.578C60.402 21.4109 65.5386 20.405 67.7541 17.7515C70.142 14.7613 73.6712 9.03508 70.8951 3.69826C69.7315 1.79869 67.7211 0.485857 65.225 0.0388315C56.6776 -0.436825 48.7171 3.53067 41.3706 7.91695C25.3038 18.7849 12.4513 33.8441 5.17889 50.3279C0.985964 60.2736 -2.8059 74.5204 2.87798 86.1159C7.27477 94.1616 16.4032 98.4353 27.2938 97.5416C34.932 96.7602 44.1682 94.3563 50.3802 92.9049C56.5921 91.4512 88.3905 80.8077 98.8386 99.332C98.8386 99.332 102.313 92.7648 110.995 92.6247C118.134 91.9834 128.432 94.6369 135.931 100C133.433 96.3414 126.349 90.9492 120.44 87.2329V87.2329Z" fill="#FBCE30"/>
<path d="M70.6306 25.0692C64.6832 21.2697 52.7298 28.5336 43.1556 40.9934C34.4005 52.1698 30.62 65.1595 34.7341 71.1663C40.8543 78.2343 52.2158 67.9535 57.0474 62.4506L57.6707 61.8074C60.9565 58.3709 63.495 54.2358 65.9519 50.2683C65.9519 50.2683 68.2101 46.6364 68.3179 46.4684C69.7136 46.218 71.3947 45.8267 73.289 45.2957C73.262 45.3789 66.0413 57.197 66.7779 63.063C67.0073 64.8526 66.832 71.39 73.387 73.3732C82.1234 74.799 89.0994 68.2047 95.2538 62.3376C95.2538 62.3376 96.3025 61.3607 96.8957 60.803C96.7455 61.3882 96.5499 62.1689 96.5499 62.1689C93.9922 70.83 97.4398 72.6471 99.5965 73.3178C106.114 75.1628 113.901 65.9425 113.926 65.9425C113.724 68.8468 113.133 71.2495 116.278 73.1773C119.245 74.2119 122.249 72.6349 124.532 71.1541C132.755 65.5107 139.38 56.6782 144.731 49.0433H141.318C141.277 49.0433 132.895 60.8729 127.452 63.4439C127.444 63.4439 126.454 63.9391 125.883 63.5474C125.176 62.9603 125.455 61.7402 125.891 60.8759C125.919 60.8194 146.906 25.375 146.906 25.375H136.997C136.997 25.375 135.914 27.0802 135.826 27.1921C135.76 27.1364 135.601 26.8432 135.491 26.7027C129.351 18.4333 115.448 31.1531 104.981 45.9038C100.951 51.5758 95.8203 57.962 90.5002 62.5716C90.5002 62.5716 82.6189 69.6065 79.2513 64.5522C78.0202 62.4285 78.399 59.3237 79.0933 57.2848C83.0141 46.4169 89.7702 36.5537 97.4582 30.6022C99.6286 28.955 101.988 28.4786 103.158 29.1772C104.274 29.8208 104.454 31.4119 103.748 32.5018C101.957 32.4461 100.523 32.9759 99.3565 34.1494C97.0591 36.4964 96.2609 38.7598 96.9913 40.8834C100.54 45.8004 107.617 36.0776 107.274 30.1548C107.152 28.0312 105.988 26.0201 104.252 25.0413C101.664 23.5334 97.7162 23.924 95.1613 25.1261C91.741 26.3828 86.3269 30.7687 83.1666 34.1777C79.1881 38.4529 72.365 43.2018 70.2311 42.67C70.9301 40.8533 76.6936 29.3711 70.6306 25.0692V25.0692ZM118.406 42.0554C120.333 39.4576 125.944 32.5007 127.312 31.3276C131.912 27.3868 133.751 29.1207 133.91 30.3491C129.617 37.8363 124.549 46.4138 119.785 54.1251C119.795 54.0976 118.294 56.332 118.294 56.332C116.19 59.4604 114.072 62.1426 110.616 64.0143C110.123 64.1548 109.311 64.2109 108.77 63.8184C108.119 63.3993 107.862 62.7007 107.936 61.9738C108.143 59.5719 110.654 52.2255 118.406 42.0554V42.0554ZM64.4974 46.5532C64.4974 46.5532 64.4112 46.8055 64.3684 46.888C64.3575 46.888 60.0481 53.7319 60.0481 53.7319C57.4473 57.113 54.2 61.3607 50.1407 63.3993C48.9375 63.7906 47.2745 64.0425 46.4269 63.0095C44.6301 60.9137 45.5561 58.0082 46.3085 55.6616L46.5747 54.8233C48.7317 49.1246 52.1543 44.0947 55.4855 39.429C55.527 39.4015 55.6203 39.3736 55.654 39.3736C55.6619 39.4015 55.6752 39.4015 55.6811 39.4576C57.7715 43.3682 61.6912 45.1835 64.6225 46.0229C64.6401 46.0229 64.6589 46.0508 64.6589 46.1069C64.6593 46.1901 64.6115 46.3027 64.4974 46.5532V46.5532ZM68.5802 38.48C68.5614 38.5357 66.6607 42.7819 66.6607 42.7819C66.3859 43.0052 65.9515 42.8937 65.4536 42.7819L64.6005 42.6414C61.9217 41.8317 59.9011 40.0993 59.2781 38.0322C58.4188 34.0089 61.9483 30.8519 63.5036 29.707C64.9957 28.7004 67.3154 28.1697 68.6625 29.2039C69.4932 30.1541 69.8081 31.3829 69.8081 32.7248C69.8085 34.5403 69.2329 36.5796 68.5802 38.48V38.48Z" fill="#FBCE30"/>
<path d="M193.855 51.4447C192.9 49.4337 190.632 48.1484 188.214 48.2877C180.364 48.9867 172.686 55.2725 168.655 64.2959C166.539 68.9341 165.385 72.7611 164.628 78.8515C167.069 76.1144 172.048 71.6166 177.698 69.1578C177.698 69.1578 178.467 63.319 182.387 58.1223C183.87 55.9704 186.839 52.5064 190.173 53.4279C193.086 54.3785 192.062 62.2291 188.191 69.8266C185.327 75.415 180.943 81.0042 176.509 84.8587C172.588 88.0997 166.787 92.0107 161.711 88.9938C158.515 87.1507 156.884 83.2943 157.229 78.3213C158.756 64.213 165.351 52.1995 174.79 38.51C184.522 25.7982 195.25 12.7512 209.702 5.79353C212.65 4.34098 215.38 4.00581 217.739 4.89986C217.739 4.89986 204.173 12.1637 197.706 25.6024C196.061 29.0114 193.773 33.6198 196.077 37.6992C197.281 39.8221 199.419 39.99 201.14 39.8782C209.067 38.0897 214.188 30.8819 218.372 24.2892C220.798 19.2883 222.955 14.3153 222.955 8.78337C222.955 8.11302 222.919 7.21935 222.861 6.54824C226.648 4.59331 234.413 8.05691 234.413 8.05691C240.482 10.0134 253.403 19.6525 257.762 21.4955C259.888 19.0932 263.382 15.4617 265.349 13.6453L262.501 11.9408C257.942 9.23078 253.123 6.66009 248.379 4.11804C237.606 -1.60855 228.837 0.402495 224.374 1.96728C222.62 2.58151 221.017 3.11252 221.017 3.11252C217.705 -0.407572 212.273 -0.0731617 208.271 0.877388C193.877 4.90024 180.513 14.7062 166.186 31.721C155.653 45.0478 149.119 56.5586 145.636 67.929C142.952 75.5834 142.136 86.8426 148.688 93.5201C154.259 99.1898 161.645 97.9618 166.861 95.9229C178.163 90.5028 188.32 78.824 193.381 65.3858C194.603 61.3912 195.958 55.7478 193.855 51.4447V51.4447ZM219.843 9.34263C218.347 26.0498 205.01 35.8569 201.71 36.6379C199.71 37.0285 196.298 36.163 199.344 29.1515C203.83 19.7074 211.489 11.69 219.707 7.58278C219.907 8.28137 219.901 8.72725 219.843 9.34263V9.34263Z" fill="#FBCE30"/>
<path d="M298.956 11.4644C291.782 15.4322 284.345 18.0018 275.343 17.1081C272.848 19.8468 270.419 22.6683 268.18 25.5734C280.815 28.7025 294.21 21.746 301.681 15.1253C309.584 8.4478 313.636 0.0390625 313.636 0.0390625C313.636 0.0390625 307.712 6.63183 298.956 11.4644Z" fill="#FBCE30"/>
<path d="M158.067 33.7773L163.377 25.3789H153.967L148.658 33.7773H158.067Z" fill="#FBCE30"/>
<path d="M275.306 88.0113C274.294 88.6816 272.873 88.1663 273.404 86.6301C274.728 82.7187 279.992 74.7479 279.992 74.7479L294.653 49.4281H284.61C284.133 50.1916 283.112 51.945 283.112 51.945C282.648 51.1914 281.258 49.5155 280.686 49.1536C278.233 47.6438 274.633 48.3577 272.15 49.7262C261.353 55.8735 253.476 68.0188 247.264 77.4903C247.264 77.4903 240.724 88.0189 237.094 88.8019C234.259 89.0256 234.552 85.3081 234.675 84.4419C235.77 78.1828 238.315 72.2325 240.879 66.8403C246.094 63.3203 252.045 58.7107 257.453 53.654C269.19 42.7292 279.085 30.3526 280.531 27.5868C280.531 27.5868 278.966 27.8945 277.117 27.9499C268.088 40.2146 249.61 58.0399 244.008 60.6935C246.49 54.8814 262.523 27.1394 276.168 13.8691L278.315 11.8569C281.635 8.69989 285.075 5.45924 287.756 4.92823C288.039 4.90037 288.403 4.92823 288.718 5.57186C288.838 8.02993 287.898 9.84628 286.82 11.9134L285.309 14.9312C285.309 14.9312 287.449 14.5399 288.855 14.0917C290.485 11.1038 292.292 7.75011 291.626 3.75589C291.404 2.47055 290.448 1.49289 289.2 1.26919C285.129 0.514856 280.693 3.44744 277.124 5.82305L276.98 5.90627C258.632 19.9034 243.138 40.0749 229.593 67.6222C228.611 68.3475 224.818 69.2144 224.173 68.7949C225.511 66.1135 227.195 62.5087 228.038 58.5973C228.184 57.4795 228.319 56.3347 228.319 55.2173C228.319 52.8127 227.726 50.5504 225.514 48.9864C222.92 47.7289 219.715 48.3161 217.553 49.2655C207.87 53.1769 200.634 62.8442 195.412 70.8056C192.603 75.8637 189.803 81.2811 189.027 87.4845C188.481 92.3449 189.593 95.4741 192.431 97.0392C195.35 98.491 199.023 96.9819 200.466 96.2562C210.276 91.2275 217.129 81.1425 222.532 71.9222C222.747 71.8947 225.697 71.8115 227.928 71.2518C227.958 71.2518 227.97 71.2518 228.02 71.2812C227.892 71.6985 226.739 75.0521 226.739 75.0521C223.315 84.8298 221.731 91.4798 224.966 95.4183C229.587 100.978 237.239 95.2236 243.463 87.623C242.127 96.7308 246.975 98.1562 250.67 97.4584C254.915 96.3414 259.645 91.9261 261.84 89.6639C261.135 92.3174 261.327 97.0675 265.188 97.542C267.835 98.0184 269.815 96.6166 272.107 95.4149C280.328 91.0561 290.169 76.5318 292.724 72.3325H289.374C285.742 77.6774 281.12 84.6851 275.306 88.0113V88.0113ZM201.516 87.0386C200.995 86.2843 200.822 85.4593 200.805 84.5675C200.705 79.0895 206.757 69.2789 211.03 63.9345C211.039 63.9345 211.039 63.9345 211.039 63.9345C212.829 67.752 216.884 70.2058 219.332 71.24C216.292 77.8339 205.866 91.9555 201.516 87.0386V87.0386ZM221.047 68.2921C220.757 68.4887 215.645 66.8117 214.657 62.2021C213.819 58.2335 216.625 55.1326 219.341 53.5693C220.506 52.6749 222.262 52.3683 223.55 52.8134C224.745 53.5968 225.069 54.9947 225.069 56.5011C225.069 57.4249 224.943 58.374 224.832 59.2398C224.832 59.2398 224.811 59.4081 224.807 59.436C223.955 62.5362 222.652 65.5817 221.047 68.2921V68.2921ZM262.054 85.2787C262.049 85.2787 261.084 86.1167 261.084 86.1167C259.704 87.3173 258.285 88.6026 256.572 87.9597C256.099 87.7922 255.766 87.1783 255.686 86.7019C255.608 83.2654 257.197 80.0812 258.738 76.9807L259.134 76.1699C263.567 68.9621 268.72 60.469 276.288 54.5748C277.563 53.6789 278.947 52.9261 280.408 53.5132C280.744 53.8197 281.135 54.3511 281.135 54.8814C281.135 55.0497 280.982 55.4964 280.893 55.6353C278.78 58.9615 276.767 62.4533 274.809 65.8054C270.984 72.4272 267.015 79.2712 262.054 85.2787V85.2787Z" fill="#FBCE30"/>
</g>
<defs>
<clipPath id="clip0_599_192">
<rect width="313.636" height="100" fill="white"/>
</clipPath>
</defs>
</svg>
