<svg width="342" height="100" viewBox="0 0 342 100" fill="none" xmlns="http://www.w3.org/2000/svg">
<path fill-rule="evenodd" clip-rule="evenodd" d="M233.552 37.0875C233.552 48.223 226.627 62.8533 221.621 72.5191C213.758 87.7293 203.122 96.8436 185.827 97.9185C170.54 98.8685 135.99 101.527 142.043 75.7207C144.668 64.5488 150.5 54.7059 154.081 43.9176C166.113 19.8671 196.393 15.2824 220.449 21.2928C228.592 24.2605 232.926 28.2321 233.552 37.0873L233.552 37.0875ZM193.177 38.1548C180.812 38.1548 179.307 55.4458 176.985 64.7285C176.402 68.2367 172.481 79.9895 178.796 79.9895C193.663 82.9848 195.045 66.6494 197.545 55.7638C198.465 51.759 200.288 45.0401 199.463 40.9295C199.463 37.8721 195.207 38.3591 193.177 38.1549V38.1548ZM108.06 38.902C106.535 68.1866 86.003 65.9077 61.6129 65.7958C52.3438 65.7574 42.8649 65.1555 33.702 65.1555C30.3208 68.5911 40.1099 79.0117 42.8637 80.7366C52.2642 86.6034 64.0594 84.0845 71.627 76.4675C75.6925 76.4675 119.33 70.7535 104.225 85.8592C96.9142 92.376 86.5707 96.225 77.1661 98.4525C47.2429 105.542 -17.3947 88.3085 4.40626 46.052C19.3093 21.48 51.5883 8.04356 78.2316 1.12261C80.7124 0.625486 83.1633 0.242835 85.6888 0.0552722C104.645 -1.36265 108.06 24.8461 108.06 38.9021L108.06 38.902ZM80.2559 36.554C80.2559 33.9053 80.3641 31.1046 79.51 28.5498C76.5843 16.741 45.8856 41.9578 42.2246 45.6254C41.7651 46.5526 42.1123 46.2653 42.7572 46.5859C52.9452 46.5859 63.157 46.479 73.3312 46.479C80.0315 45.3712 80.2559 43.3282 80.2559 36.5539V36.554ZM139.38 51.6016C137.07 56.2619 137.586 62.3754 132.881 65.9021C126.447 70.7249 110.24 70.738 113.813 59.0723C117.194 47.9821 123.588 43.2653 135.225 46.1589C138.064 47.1112 138.734 48.9949 139.38 51.6016L139.38 51.6016ZM342 37.1942C342 40.1796 341.375 43.2577 340.722 46.1589C336.876 63.187 330.675 79.3873 325.168 95.7844C320.115 100.846 309.61 98.09 304.181 94.8239C301.466 92.1032 308.216 78.2217 309.295 74.8668C310.949 69.7144 319.988 50.7148 312.384 46.9063C309.938 46.9063 307.993 47.2269 305.567 47.8667C282.811 55.8477 266.659 79.0532 250.278 95.4643C243.177 99.0461 238.078 98.1295 231.102 94.6107C230.41 93.9174 230.745 92.8157 230.889 91.9424C236.168 69.8547 244.516 47.9555 253.58 27.1625C255.006 22.9171 269.657 24.4902 273.288 26.3089C273.288 31.0108 272.795 38.9021 279.573 38.9021C294.779 37.2232 332.037 4.15746 341.467 32.4988C341.734 34.0991 342 35.5496 342 37.1943L342 37.1942Z" fill="#FBCE30"/>
</svg>
