<svg width="121" height="100" viewBox="0 0 121 100" fill="none" xmlns="http://www.w3.org/2000/svg">
<path d="M64.1357 75.8427V3.33091C64.1357 2.44749 63.7851 1.60027 63.1611 0.975599C62.537 0.350933 61.6906 0 60.8081 0C59.9255 0 59.0792 0.350933 58.4551 0.975599C57.8311 1.60027 57.4805 2.44749 57.4805 3.33091V75.8427C57.4805 76.7261 57.8311 77.5733 58.4551 78.198C59.0792 78.8226 59.9255 79.1736 60.8081 79.1736C61.6906 79.1736 62.537 78.8226 63.1611 78.198C63.7851 77.5733 64.1357 76.7261 64.1357 75.8427Z" fill="#FBCE30"/>
<path d="M24.2298 74.514C20.6945 74.5133 17.2388 73.4632 14.2997 71.4966C11.3606 69.53 9.07003 66.7351 7.71773 63.4654C6.36544 60.1958 6.0121 56.5981 6.7024 53.1274C7.3927 49.6568 9.09563 46.4689 11.5959 43.967C14.0961 41.4651 17.2813 39.7615 20.7488 39.0716C24.2163 38.3817 27.8103 38.7366 31.0763 40.0913C34.3423 41.4459 37.1337 43.7396 39.0974 46.6822C41.0612 49.6248 42.1091 53.0843 42.1087 56.6231C42.1022 61.367 40.2163 65.9148 36.8646 69.2687C33.5129 72.6227 28.969 74.509 24.2298 74.514ZM48.2782 56.6212C48.2985 50.9716 46.3405 45.4934 42.7444 41.1389C39.1484 36.7845 34.1416 33.829 28.5945 32.7863C23.0474 31.7435 17.3106 32.6794 12.3813 35.4313C7.45204 38.1832 3.64192 42.577 1.61323 47.8491C-0.41546 53.1212 -0.534444 58.9382 1.27696 64.289C3.08836 69.6398 6.71561 74.1861 11.5282 77.1376C16.3409 80.0891 22.0346 81.2593 27.6197 80.4447C33.2048 79.6301 38.3282 76.8823 42.0993 72.6788V75.9179C42.0928 80.6619 40.2072 85.2097 36.856 88.5642C33.5048 91.9187 28.9615 93.8062 24.2222 93.8127C23.4161 93.8326 22.6496 94.1672 22.0865 94.745C21.5234 95.3228 21.2082 96.098 21.2082 96.9052C21.2082 97.7124 21.5234 98.4876 22.0865 99.0654C22.6496 99.6432 23.4161 99.9777 24.2222 99.9977C30.6003 99.9902 36.7149 97.4506 41.2248 92.9359C45.7346 88.4213 48.2712 82.3004 48.2782 75.916V56.6212Z" fill="#FBCE30"/>
<path d="M95.9489 74.5078C92.4135 74.5074 88.9576 73.4576 86.0182 71.4912C83.0789 69.5248 80.7881 66.7301 79.4355 63.4605C78.0829 60.1908 77.7293 56.5931 78.4194 53.1223C79.1095 49.6515 80.8123 46.4635 83.3124 43.9614C85.8126 41.4593 88.9978 39.7555 92.4653 39.0655C95.9329 38.3755 99.5269 38.7302 102.793 40.0848C106.059 41.4394 108.851 43.7331 110.814 46.6758C112.778 49.6184 113.826 53.0779 113.826 56.6168C113.819 61.3604 111.934 65.9079 108.582 69.2618C105.231 72.6157 100.688 74.5023 95.9489 74.5078V74.5078ZM95.9489 32.5352C91.1922 32.5359 86.5425 33.9484 82.5878 36.5941C78.633 39.2398 75.5508 42.9999 73.7307 47.399C71.9107 51.798 71.4346 56.6385 72.3626 61.3084C73.2906 65.9782 75.5811 70.2678 78.9445 73.6348C82.3078 77.0017 86.593 79.2948 91.2582 80.2241C95.9234 81.1534 100.759 80.6772 105.154 78.8557C109.549 77.0342 113.305 73.9492 115.949 69.9908C118.592 66.0323 120.004 61.3782 120.005 56.6168C119.999 50.2321 117.463 44.1106 112.953 39.5958C108.443 35.081 102.327 32.5417 95.9489 32.5352" fill="#FBCE30"/>
</svg>
